<svg width="36" height="36" viewBox="0 0 36 36" fill="none" xmlns="http://www.w3.org/2000/svg">
<circle cx="18" cy="18" r="18" fill="#0167FF" fill-opacity="0.2"/>
<g clip-path="url(#clip0_3779_16319)">
<path d="M25.4028 19.1261L22.8614 21.6036L23.4613 25.1015C23.6855 26.4106 22.3105 27.4045 21.1399 26.788L17.9984 25.1365L14.857 26.788C13.6891 27.4041 12.3111 26.4125 12.5355 25.1015L13.1355 21.6036L10.5941 19.1261C9.64462 18.2015 10.1692 16.5873 11.4805 16.3972L14.993 15.8867L16.5635 12.7042C17.1485 11.5189 18.8436 11.5116 19.4334 12.7042L21.0039 15.8867L24.5163 16.3972C25.8279 16.5873 26.3521 18.2016 25.4028 19.1261Z" fill="#0167FF"/>
<path d="M29.6354 14.5661L27.6959 16.4565L28.1539 19.126C28.3225 20.1099 27.2868 20.8584 26.4069 20.395L25.6534 19.999C25.9381 19.7217 26.0732 19.6028 26.2254 19.396C27.2886 17.9507 26.4334 15.865 24.633 15.6041L21.537 15.1541L20.154 12.3521L21.7315 12.1231L22.93 9.69415C23.3717 8.79982 24.6478 8.79992 25.0895 9.69415L26.2879 12.1231L28.9684 12.5126C29.9534 12.655 30.3506 13.8682 29.6354 14.5661ZM15.8461 12.3521L14.4631 15.1541L11.3672 15.6041C9.39941 15.8893 8.61372 18.3108 10.0372 19.6975L10.3467 19.999L9.59321 20.395C8.71032 20.8596 7.67774 20.1088 7.84624 19.126L8.30423 16.4565L6.36476 14.5661C5.64922 13.8679 6.04682 12.6549 7.03225 12.5126L9.71221 12.1231L10.9107 9.69415C11.3524 8.79987 12.6284 8.79992 13.0701 9.69415L14.2686 12.1231L15.8461 12.3521Z" fill="#0167FF"/>
</g>
<defs>
<clipPath id="clip0_3779_16319">
<rect width="24" height="24" fill="white" transform="translate(6 6)"/>
</clipPath>
</defs>
</svg>
