<svg width="550" height="382" viewBox="0 0 550 382" fill="none" xmlns="http://www.w3.org/2000/svg">
<path d="M549.995 266.935C549.86 270.429 549.541 273.958 549.034 277.482C544.929 306.136 528.752 334.543 503.118 346.976C492.294 351.253 480.034 355.217 466.65 358.813C460.018 360.602 453.111 362.298 445.957 363.903C443.45 364.469 440.919 365.015 438.354 365.551C438.253 365.571 438.152 365.595 438.05 365.614C437.186 365.793 436.321 365.977 435.451 366.151C433.191 366.615 430.916 367.069 428.612 367.524C428.602 367.524 428.593 367.524 428.583 367.528C427.699 367.693 426.81 367.867 425.921 368.036C425.839 368.05 425.762 368.065 425.68 368.084C423.941 368.408 422.197 368.737 420.439 369.051C419.473 369.225 418.497 369.404 417.517 369.573C417.512 369.573 417.502 369.573 417.497 369.578C415.759 369.882 414.015 370.182 412.257 370.477C411.281 370.641 410.305 370.801 409.32 370.965C407.576 371.255 405.832 371.535 404.074 371.806C403.099 371.961 402.123 372.111 401.138 372.256C399.394 372.526 397.65 372.787 395.892 373.044C394.916 373.189 393.94 373.329 392.955 373.464C391.211 373.711 389.468 373.957 387.709 374.194C386.734 374.325 385.758 374.45 384.773 374.581C384.096 374.673 383.42 374.76 382.734 374.847C381.034 375.069 379.324 375.282 377.609 375.489C360.588 377.573 343.02 379.187 325.226 380.289C322.197 380.483 319.164 380.652 316.125 380.806C299.263 381.681 282.251 382.083 265.365 381.986C255.767 381.928 246.208 381.706 236.75 381.314C232.384 381.14 228.032 380.922 223.709 380.661C213.319 380.052 203.069 379.226 193.037 378.172C179.585 376.766 166.509 374.948 153.984 372.705C153.216 372.57 152.444 372.43 151.676 372.285C128.466 368.012 107.194 362.24 88.955 354.825C49.9606 341.475 19.8682 313.208 6.93289 278.521C6.92323 278.497 6.91357 278.473 6.90391 278.453C6.54164 277.472 6.18904 276.486 5.85575 275.5C5.66254 274.939 5.47899 274.383 5.29544 273.818C4.8414 272.406 4.41151 270.99 4.01543 269.555C3.83671 268.917 3.66283 268.278 3.4986 267.631C2.6195 264.262 1.90462 260.849 1.35881 257.388C1.20907 256.494 1.07866 255.595 0.957901 254.686C-0.587772 243.134 -0.297961 231.137 2.08334 218.956C2.28138 217.941 2.5084 216.954 2.74992 216.002C2.7789 215.886 2.81271 215.775 2.84169 215.664C2.93829 215.277 3.04456 214.9 3.15565 214.528C3.1798 214.422 3.21845 214.31 3.25226 214.204C4.40185 210.337 5.93786 206.939 7.73954 203.812C8.4206 202.623 9.14514 201.472 9.89382 200.351C10.2658 199.79 10.6473 199.244 11.0338 198.703C11.169 198.504 11.3091 198.316 11.4492 198.122C11.5168 198.031 11.5844 197.934 11.6569 197.837C11.7824 197.668 11.9032 197.494 12.0336 197.325C12.7292 196.387 13.444 195.464 14.1734 194.546C14.5453 194.082 14.9173 193.613 15.294 193.153C15.381 193.037 15.4727 192.926 15.5645 192.815C16.0282 192.25 16.4919 191.689 16.9653 191.123C17.3082 190.703 17.6512 190.287 18.0038 189.867C18.8201 188.885 19.6461 187.89 20.4672 186.889C23.5537 183.128 26.6451 179.165 29.4273 174.529C30.0069 173.567 30.5769 172.567 31.1275 171.547C31.7844 170.314 32.422 169.043 33.0306 167.714C43.1982 146.745 42.1404 118.768 37.9478 101.454C28.9491 63.5287 42.0052 18.6529 86.878 4.37902C147.971 -14.888 195.727 56.8244 275.238 47.8531C321.545 42.6279 330.148 28.9583 378.527 9.43022C378.904 9.27554 379.286 9.12086 379.677 8.97102C380.31 8.71967 380.942 8.46348 381.585 8.21213C400.022 0.922946 433.273 -3.09384 461.81 2.92409C462.192 3.00626 462.573 3.08843 462.96 3.17061C480.962 7.15839 496.964 15.221 505.997 29.0743C540.195 79.8424 495.979 106.635 489.84 149.65C490.999 193.821 534.404 208.544 546.75 245.565C547.875 248.939 548.744 252.497 549.3 256.281C549.512 257.717 549.677 259.186 549.793 260.694C549.947 262.71 550.02 264.789 549.995 266.935Z" fill="#EFEBFF"/>
<path fill-rule="evenodd" clip-rule="evenodd" d="M159.141 232.131C159.142 244.922 159.17 257.713 159.225 270.501C159.229 271.351 159.215 272.213 159.201 273.07C159.187 273.921 159.174 274.766 159.177 275.592C160.21 275.583 161.286 275.573 162.402 275.563C162.495 260.937 162.422 246.309 162.182 231.683C161.172 231.86 160.157 232.01 159.141 232.131ZM310.788 285.405C310.004 285.662 299.985 285.825 285.221 285.904C285.223 284.701 285.194 283.535 285.085 282.455C307.931 282.542 310.285 282.267 311.982 281.065C312.144 280.951 312.301 280.827 312.469 280.694L312.545 280.634C316.362 277.629 316.317 275.293 316.038 260.99C315.891 253.421 315.679 242.5 315.939 226.355C315.979 226.062 315.98 225.765 315.944 225.477C316.501 225.427 316.915 225.374 317.177 225.317C317.764 225.211 318.34 225.074 318.909 224.906C319.185 228.963 319.275 257.527 319.298 264.831V264.838V264.922C319.3 265.645 319.301 266.146 319.303 266.379C319.305 266.963 319.311 267.542 319.316 268.112V268.115V268.118C319.391 276.051 319.451 282.557 310.788 285.405Z" fill="#191919"/>
<path d="M172.224 266.625C173.139 255.075 188.796 251.501 198.947 257.083C203.121 259.379 205 263.332 206.041 267.76C206.315 268.92 205.42 269.032 204.568 269.032C171.004 269.043 171.921 270.459 172.224 266.625ZM187.139 267.372C205.226 267.321 204.755 267.899 202.173 263.76C194.945 252.174 174.579 256.272 174.301 266.381C174.259 267.853 174.241 267.409 187.139 267.372Z" fill="#191919"/>
<path d="M269.913 231.879C270.179 231.923 270.421 232.058 270.596 232.262C270.772 232.464 270.87 232.722 270.875 232.991C270.88 233.259 270.79 233.521 270.623 233.731C270.454 233.94 270.218 234.084 269.955 234.137C269.032 234.333 217.473 233.9 217.433 233.897C216.497 233.897 214.947 234.191 214.894 232.802C214.848 231.352 214.846 231.612 242.843 231.612C242.843 231.98 265.638 231.516 269.913 231.879Z" fill="#191919"/>
<path d="M198.108 243.828C197.982 255.882 181.413 254.877 181.564 243.373C181.52 241.191 182.338 239.081 183.841 237.501C185.343 235.919 187.409 234.996 189.588 234.93C191.89 235.001 194.073 235.974 195.665 237.638C197.258 239.303 198.136 241.524 198.108 243.828ZM195.813 244.095C195.647 234.757 183.46 235.288 183.626 243.805C183.795 252.528 195.954 252.318 195.813 244.095Z" fill="#191919"/>
<path d="M254.219 244.366C256.352 244.366 256.362 246.695 254.229 246.716C215.947 247.092 216.373 246.778 216.428 245.52C216.494 244.005 225.561 244.356 254.219 244.366Z" fill="#191919"/>
<path d="M300.138 231.984C302.274 232.012 302.254 234.203 300.193 234.243C274.413 234.74 273.828 234.497 273.929 232.783C274.02 231.255 275.616 231.676 300.138 231.984Z" fill="#191919"/>
<path d="M236.843 259.671L232.772 259.079C232.505 259.039 232.367 258.817 231.545 257.09C231.302 256.576 230.622 255.165 230.611 255.14C230.437 254.787 230.167 254.49 229.832 254.283C229.497 254.074 229.111 253.965 228.718 253.965C228.324 253.965 227.939 254.074 227.605 254.283C227.27 254.49 227 254.787 226.826 255.14L225.003 258.834C224.819 259.208 224.008 259.177 220.588 259.674C220.199 259.732 219.834 259.898 219.534 260.153C219.234 260.408 219.012 260.742 218.891 261.116C218.77 261.491 218.757 261.89 218.851 262.273C218.946 262.655 219.146 263.003 219.428 263.276L222.374 266.149C222.671 266.441 222.391 267.212 221.809 270.61C221.758 270.914 221.773 271.224 221.852 271.52C221.934 271.817 222.078 272.092 222.275 272.328C222.472 272.563 222.719 272.752 222.998 272.881C223.276 273.012 223.579 273.08 223.886 273.08C224.585 273.08 224.61 272.948 228.513 270.925C228.881 270.733 229.517 271.233 232.579 272.841C232.927 273.024 233.32 273.107 233.713 273.077C234.106 273.049 234.482 272.911 234.8 272.679C235.118 272.447 235.367 272.132 235.514 271.767C235.664 271.403 235.707 271.003 235.64 270.615L234.934 266.549C234.863 266.129 235.625 265.602 238.012 263.273C238.294 262.998 238.494 262.65 238.589 262.268C238.683 261.886 238.668 261.484 238.547 261.11C238.424 260.735 238.201 260.402 237.901 260.147C237.599 259.893 237.233 259.729 236.843 259.671ZM236.857 262.086C234.048 264.825 233.045 265.365 233.302 266.829C234.044 271.159 234.131 271.101 233.817 271.331C233.534 271.529 233.526 271.482 231.451 270.35C229.512 269.292 228.788 268.894 227.734 269.448L224.088 271.366C224.013 271.408 223.927 271.426 223.843 271.421C223.757 271.414 223.674 271.384 223.606 271.335C223.536 271.285 223.481 271.215 223.45 271.136C223.418 271.056 223.41 270.97 223.425 270.885C224.088 267.001 224.572 265.99 223.515 264.959C220.366 261.887 220.334 261.992 220.454 261.62C220.573 261.249 220.747 261.307 222.925 261.027C225.13 260.74 225.954 260.634 226.481 259.563L228.304 255.871C228.339 255.8 228.393 255.737 228.46 255.694C228.528 255.649 228.605 255.623 228.685 255.619C228.766 255.614 228.846 255.631 228.917 255.669C228.99 255.705 229.05 255.76 229.093 255.828C231.01 259.785 231.176 260.523 232.526 260.72C236.878 261.353 236.845 261.251 236.964 261.62C236.993 261.7 236.998 261.786 236.979 261.869C236.959 261.952 236.918 262.028 236.857 262.086Z" fill="#191919"/>
<path d="M225.729 264.466C225.388 264.411 224.901 264.544 224.758 263.969C224.647 263.513 224.939 263.306 225.307 263.15C226.812 262.543 227.716 260.678 228.159 260.829C229.193 261.22 227.96 264.37 225.729 264.466Z" fill="#191919"/>
<path d="M249.548 269.578C250.347 269.578 250.995 270.226 250.995 271.025C250.995 271.824 250.347 272.471 249.548 272.471C248.749 272.471 248.102 271.824 248.102 271.025C248.102 270.226 248.749 269.578 249.548 269.578Z" stroke="#191919" stroke-width="1.5"/>
<path d="M258.228 269.578C259.027 269.578 259.675 270.226 259.675 271.025C259.675 271.824 259.027 272.472 258.228 272.472C257.429 272.472 256.781 271.824 256.781 271.025C256.781 270.226 257.429 269.578 258.228 269.578Z" stroke="#191919" stroke-width="1.5"/>
<path d="M252.925 260.898H250.031" stroke="#191919" stroke-width="1.5" stroke-linecap="round"/>
<path d="M244.242 255.109L244.498 255.195C245.771 255.619 246.407 255.831 246.771 256.337C247.136 256.842 247.136 257.513 247.136 258.856V261.38C247.136 264.109 247.136 265.474 247.983 266.321C248.83 267.169 250.194 267.169 252.922 267.169H254.851M260.638 267.169H258.709" stroke="#191919" stroke-width="1.5" stroke-linecap="round"/>
<path d="M247.133 258.004H250.026M247.615 264.757H257.763C258.688 264.757 259.151 264.757 259.513 264.518C259.876 264.279 260.058 263.854 260.422 263.003L260.836 262.038C261.616 260.216 262.007 259.305 261.578 258.654C261.149 258.004 260.158 258.004 258.176 258.004H253.884" stroke="#191919" stroke-width="1.5" stroke-linecap="round"/>
<path fill-rule="evenodd" clip-rule="evenodd" d="M191.86 131.779C251.516 131.672 317.971 132.016 322.651 133.678C326.302 134.974 326.289 136.115 326.136 148.552C326.083 152.797 326.015 158.36 326.072 165.694C326.073 165.907 326.077 166.311 326.082 166.877C326.148 174.309 326.466 209.798 326.15 211.413C325.772 213.987 324.549 216.363 322.671 218.163C320.793 219.965 318.371 221.089 315.784 221.359C298.299 222.886 235.853 221.313 235.87 221.268C236.054 220.789 213.584 220.854 186.554 221.059C183.837 222.971 180.974 224.655 178.006 226.092C223.999 226.379 272.819 226.377 308.373 225.711C308.843 225.703 309.394 225.713 310.007 225.723C315.242 225.815 325.087 225.99 329.815 215.47C331.295 212.181 331.378 211.176 331.287 185.111C331.27 179.773 331.043 143.57 330.929 138.231C330.955 136.965 330.725 135.707 330.254 134.533C329.784 133.358 329.081 132.29 328.188 131.392C327.296 130.495 326.232 129.787 325.061 129.31C323.887 128.833 322.631 128.597 321.367 128.616L321.244 128.615C317.915 128.58 247.792 127.854 186.187 127.656C188.171 128.91 190.065 130.288 191.86 131.779ZM124.331 127.722C110.816 127.835 100.688 128.039 96.0482 128.367C88.2676 128.917 80.9312 134.942 81.0323 148.106C81.0323 148.146 81.0936 204.747 81.3637 215.655C81.3402 216.898 81.5647 218.135 82.0241 219.291C82.4837 220.446 83.1689 221.499 84.0398 222.386C84.9106 223.274 85.9497 223.979 87.0962 224.459C88.2428 224.942 89.4736 225.189 90.717 225.189C98.5412 225.305 107.113 225.421 116.237 225.53C116.524 224.365 117.024 223.062 117.58 221.64C108.42 221.698 101.332 221.718 97.7618 221.664C94.9752 221.592 92.2188 221.068 89.6 220.113C85.8606 218.798 85.8794 217.792 86.1514 203.274C86.3411 193.141 86.6542 176.431 85.8995 148.444C85.7255 146.421 85.7923 144.385 86.0984 142.378C86.4871 139.782 87.7393 137.393 89.6527 135.597C91.566 133.801 94.0288 132.702 96.6432 132.478C97.4974 132.387 105.586 132.267 118.239 132.151C120.178 130.556 122.214 129.075 124.331 127.722Z" fill="#191919"/>
<path d="M255.617 148.658C255.748 146.358 254.873 146.835 217.382 146.835C217.382 146.815 210.206 146.74 202.336 146.711L204.303 150.515C255.479 150.651 255.481 151.048 255.617 148.658Z" fill="#191919"/>
<path d="M232.959 168.233C233.039 166.218 233.036 166.192 209.172 166.248L209.691 170.195C232.877 170.332 232.88 170.238 232.959 168.25V168.233Z" fill="#191919"/>
<path d="M302.084 147.222C304.583 147.492 304.437 150.106 302.178 150.411C300.852 150.59 263.695 150.665 262.291 150.38C260.074 149.93 259.492 147.266 262.473 146.986C265.025 146.746 302.044 147.218 302.084 147.222Z" fill="#191919"/>
<path d="M270.031 189.352C273.325 196.021 271.481 194.69 278.842 195.759C279.147 195.802 279.435 195.932 279.672 196.129C279.908 196.328 280.083 196.59 280.179 196.883C280.274 197.176 280.285 197.491 280.209 197.792C280.135 198.09 279.977 198.363 279.755 198.577C274.429 203.771 275.133 201.613 276.388 208.946C276.439 209.25 276.406 209.561 276.29 209.847C276.174 210.13 275.982 210.377 275.733 210.558C275.484 210.738 275.189 210.846 274.883 210.869C274.576 210.891 274.27 210.826 273.998 210.684C267.416 207.219 269.689 207.224 263.102 210.684C262.83 210.828 262.523 210.893 262.217 210.871C261.909 210.848 261.615 210.74 261.367 210.559C261.116 210.379 260.924 210.132 260.808 209.847C260.692 209.561 260.659 209.25 260.712 208.946C261.975 201.614 262.668 203.771 257.345 198.577C257.126 198.362 256.972 198.09 256.899 197.79C256.826 197.491 256.838 197.18 256.932 196.886C257.026 196.595 257.202 196.334 257.436 196.135C257.669 195.936 257.955 195.806 258.258 195.759C265.617 194.682 263.781 196.021 267.076 189.352C267.212 189.077 267.422 188.845 267.684 188.682C267.944 188.52 268.246 188.434 268.552 188.434C268.861 188.434 269.162 188.52 269.422 188.682C269.684 188.845 269.895 189.077 270.031 189.352Z" fill="#0167FF"/>
<path d="M298.748 189.35C302.042 196.019 300.198 194.688 307.559 195.757C307.866 195.8 308.152 195.928 308.389 196.127C308.625 196.325 308.8 196.586 308.896 196.881C308.991 197.174 309.002 197.489 308.928 197.789C308.852 198.088 308.694 198.361 308.472 198.575C303.148 203.769 303.85 201.61 305.106 208.944C305.158 209.248 305.125 209.559 305.009 209.843C304.893 210.128 304.7 210.375 304.452 210.555C304.203 210.736 303.908 210.844 303.602 210.865C303.295 210.889 302.988 210.824 302.717 210.681C296.133 207.217 298.408 207.222 291.819 210.681C291.547 210.826 291.241 210.89 290.934 210.867C290.626 210.846 290.332 210.738 290.084 210.557C289.834 210.376 289.641 210.129 289.525 209.844C289.409 209.559 289.376 209.248 289.429 208.944C290.694 201.612 291.386 203.769 286.063 198.575C285.845 198.36 285.691 198.086 285.618 197.788C285.545 197.489 285.556 197.178 285.651 196.884C285.745 196.592 285.919 196.332 286.153 196.133C286.387 195.934 286.672 195.803 286.975 195.757C294.336 194.679 292.5 196.019 295.795 189.35C295.93 189.073 296.141 188.841 296.401 188.678C296.663 188.516 296.965 188.43 297.271 188.43C297.579 188.43 297.879 188.516 298.141 188.678C298.401 188.841 298.612 189.073 298.748 189.35Z" fill="#0167FF"/>
<path d="M241.31 189.35C244.605 196.019 242.76 194.688 250.123 195.757C250.428 195.8 250.716 195.929 250.952 196.127C251.189 196.325 251.364 196.587 251.459 196.881C251.553 197.174 251.565 197.489 251.49 197.789C251.414 198.088 251.257 198.361 251.035 198.575C245.71 203.769 246.414 201.61 247.669 208.944C247.72 209.248 247.687 209.559 247.571 209.843C247.455 210.128 247.263 210.375 247.014 210.555C246.766 210.736 246.471 210.844 246.164 210.865C245.858 210.889 245.551 210.824 245.279 210.681C238.697 207.217 240.97 207.222 234.381 210.681C234.11 210.826 233.803 210.89 233.496 210.867C233.188 210.846 232.895 210.738 232.646 210.557C232.396 210.376 232.204 210.129 232.088 209.844C231.972 209.559 231.939 209.248 231.992 208.944C233.256 201.612 233.949 203.769 228.626 198.575C228.407 198.36 228.253 198.086 228.18 197.788C228.107 197.489 228.119 197.176 228.213 196.884C228.309 196.592 228.483 196.332 228.717 196.133C228.951 195.934 229.236 195.803 229.539 195.757C236.899 194.679 235.062 196.019 238.357 189.35C238.493 189.073 238.703 188.841 238.964 188.678C239.225 188.516 239.527 188.43 239.834 188.43C240.142 188.43 240.442 188.516 240.704 188.678C240.964 188.841 241.174 189.073 241.31 189.35Z" fill="#0167FF"/>
<path fill-rule="evenodd" clip-rule="evenodd" d="M203.908 202.618C203.968 202.731 204.016 202.842 204.054 202.958C204.387 203.984 203.898 205.279 203.267 208.944C203.214 209.248 203.247 209.559 203.363 209.844C203.479 210.129 203.671 210.376 203.921 210.557C204.17 210.738 204.463 210.846 204.772 210.867C205.078 210.89 205.385 210.826 205.656 210.681C208.953 208.951 210.03 208.085 211.109 208.085C212.186 208.085 213.263 208.949 216.554 210.681C216.826 210.824 217.133 210.889 217.439 210.865C217.746 210.844 218.041 210.736 218.289 210.555C218.538 210.375 218.73 210.128 218.846 209.843C218.962 209.559 218.995 209.248 218.944 208.944C218.316 205.277 217.825 203.983 218.158 202.956C218.492 201.93 219.648 201.171 222.31 198.575C222.532 198.361 222.689 198.088 222.764 197.789C222.84 197.489 222.828 197.174 222.734 196.881C222.638 196.586 222.462 196.325 222.227 196.127C221.99 195.928 221.702 195.8 221.397 195.757C217.718 195.223 216.337 195.288 215.467 194.654C214.595 194.02 214.232 192.685 212.585 189.35C212.449 189.073 212.239 188.841 211.979 188.678C211.717 188.516 211.415 188.43 211.109 188.43C210.8 188.43 210.5 188.516 210.239 188.678C209.978 188.841 209.768 189.073 209.632 189.35C209.448 189.723 209.281 190.069 209.125 190.394C207.851 194.741 206.084 198.829 203.908 202.618Z" fill="#0167FF"/>
<path fill-rule="evenodd" clip-rule="evenodd" d="M169.093 120.613C122.63 108.619 76.3605 161.319 105.161 206.856C109.583 213.847 113.351 216.918 115.591 218.744C117.285 220.124 118.104 220.793 117.671 221.905C116.179 225.726 115.028 228.702 117.136 230.489C117.405 230.717 117.61 230.882 117.714 231.097C118.211 232.122 116.37 234.282 108.021 250.08C105.535 254.776 88.2389 287.545 85.9619 292.778C84.588 295.941 91.6229 303.142 99.3504 300.961C101.977 300.22 130.922 242.376 132.052 239.891C132.545 238.809 133.255 238.951 134.169 239.137C135.379 239.381 136.947 239.699 138.847 237.345C140.107 235.785 140.709 234.512 141.154 233.57C141.862 232.072 142.176 231.407 144.118 231.744C175.925 237.265 211.641 211.953 211.446 173.731C211.396 164.618 209.053 155.664 204.633 147.696C200.211 139.727 193.856 133.001 186.152 128.137C185.401 127.656 184.647 127.196 183.892 126.755C182.939 127.427 181.901 128.173 180.813 128.958C191.766 134.794 200.78 144.684 205.309 158.613C216.515 193.093 190.172 227.656 155.013 229.098H155.018C114.864 230.746 88.1411 190.96 104.662 154.879C116.596 128.812 144.134 118.596 167.848 124.113C168.322 122.822 168.735 121.664 169.093 120.613ZM106.279 278.22C107.167 276.509 108.209 274.497 109.446 272.123C109.797 271.448 110.127 270.818 110.435 270.226C114.322 262.781 114.863 261.747 113.679 261.16C112.506 260.58 109.526 266.423 106.03 273.28C103.096 279.034 99.7975 285.502 96.8994 289.481C96.0586 290.636 95.0671 290.719 94.3533 290.777C93.766 290.825 93.3668 290.858 93.3944 291.462C93.4372 292.384 94.808 292.546 96.0834 292.695L96.1156 292.699C97.1616 292.919 97.6581 292.173 98.3331 291.158C98.7159 290.583 99.156 289.922 99.7863 289.302C101.317 287.795 101.953 286.568 106.279 278.22ZM120.738 249.69C121.752 247.588 122.966 245.068 124.431 242.055C126.268 238.267 124.49 236.904 114.54 257.133C114.459 257.299 114.347 257.473 114.232 257.651C113.788 258.342 113.303 259.098 114.388 259.647C115.636 260.277 115.679 260.189 120.738 249.69ZM137.556 233.09C137.701 232.836 137.854 232.569 138.02 232.289H138.015C138.937 230.726 138.263 230.535 135.909 229.869C133.424 229.166 129.069 227.932 122.744 223.999C121.479 223.215 120.852 222.813 120.419 222.966C119.988 223.118 119.749 223.82 119.263 225.24C118.428 227.684 118.776 228.798 121.008 230.015C134.96 237.622 135.28 237.063 137.556 233.09Z" fill="#0167FF"/>
<path fill-rule="evenodd" clip-rule="evenodd" d="M165.769 129.362C152.378 126.322 137.583 128.811 125.35 137.65C92.5634 161.356 100.876 209.86 137.407 221.431C179.58 234.789 216.658 191.281 197.584 153.873C192.623 144.143 184.761 136.98 175.591 132.714C174.734 133.322 173.878 133.924 173.035 134.505C193.123 143.378 206.219 166.264 197.034 190.693C180.674 234.202 116.538 229.454 108.647 184.533C107.094 175.824 108.142 166.851 111.659 158.734C115.176 150.618 121.007 143.719 128.422 138.899C140.388 130.911 153.225 129.136 164.678 131.736C165.046 130.945 165.418 130.145 165.769 129.362Z" fill="#0167FF"/>
<path d="M133.121 152.103C129.791 155.863 126.252 159.432 122.519 162.792C122.39 162.908 122.307 163.067 122.286 163.24C122.266 163.412 122.308 163.586 122.406 163.73C124.635 166.992 126.14 170.496 127.734 174.203C127.775 174.298 127.835 174.383 127.912 174.452C127.989 174.522 128.08 174.573 128.178 174.604C128.277 174.635 128.381 174.644 128.483 174.631C128.585 174.618 128.684 174.583 128.772 174.529C131.731 172.684 134.871 170.988 137.88 169.167C138.189 178.22 137.853 187.895 136.802 200.313C136.788 200.49 136.839 200.666 136.947 200.808C137.055 200.949 137.211 201.045 137.386 201.078C149.665 203.372 161.578 203.094 173.803 200.212C173.959 200.176 174.097 200.088 174.197 199.963C174.298 199.839 174.353 199.685 174.356 199.525C174.468 192.325 173.633 178.876 171.797 170.131C173.637 171.855 175.785 173.551 178.207 175.191C178.35 175.288 178.522 175.33 178.693 175.31C178.864 175.29 179.022 175.209 179.138 175.082C181.94 172.024 184.925 169.107 187.74 166.034C187.843 165.922 187.907 165.78 187.924 165.629C187.942 165.479 187.91 165.326 187.835 165.194C185.202 160.574 182.224 156.158 178.928 151.986C178.88 151.742 178.709 151.529 178.457 151.443C174.457 150.086 170.31 149.213 166.102 148.842C165.972 148.832 165.841 148.858 165.723 148.917C165.606 148.975 165.507 149.065 165.437 149.176C158.426 149.586 152.042 149.523 144.928 149.928C144.825 149.874 144.711 149.846 144.595 149.846C144.48 149.846 144.365 149.874 144.263 149.928C144.109 149.867 143.938 149.862 143.781 149.914C140.635 150.961 137.384 151.663 134.086 152.007C133.943 151.899 133.764 151.849 133.585 151.866C133.406 151.884 133.24 151.968 133.121 152.103ZM165.097 150.631C162.761 154.529 159.156 156.968 155.482 157.065C151.883 157.165 148.288 154.982 145.888 151.315C152.625 150.965 158.408 151.005 165.097 150.631ZM144.176 151.295L144.197 151.306C146.619 155.475 150.789 158.625 155.52 158.5C160 158.382 164.352 155.266 166.89 150.366C170.546 150.753 174.165 151.535 177.667 152.696C177.776 152.851 182.254 158.382 186.328 165.45C183.774 168.212 181.081 170.87 178.502 173.654C175.552 171.613 173.046 169.495 171.047 167.353C170.54 166.809 169.639 167.307 169.829 168.026C171.984 176.172 172.995 190.955 172.928 198.942C161.315 201.606 149.972 201.882 138.286 199.784C139.345 187.059 139.648 177.196 139.267 167.884C139.244 167.335 138.637 167.013 138.171 167.304C135.114 169.211 131.844 170.967 128.723 172.873C127.301 169.573 125.904 166.435 123.939 163.442C127.428 160.27 130.748 156.916 133.885 153.396C133.995 153.436 134.097 153.449 134.204 153.438C137.596 153.086 140.939 152.367 144.176 151.295Z" fill="black"/>
<path d="M154.489 182.591C157.814 182.591 161.208 181.04 163.13 178.355C164.577 176.332 165.19 173.844 164.811 171.529C163.316 162.385 148.599 161.604 145.424 170.089C143.431 175.413 147.345 182.591 154.489 182.591ZM156.648 168.267C156.729 168.2 156.824 168.152 156.927 168.126C157.029 168.1 157.136 168.097 157.24 168.116C157.344 168.135 157.443 168.176 157.528 168.236C157.614 168.297 157.685 168.375 157.736 168.465C158.307 168.437 158.843 168.78 159.092 169.339C159.543 170.357 158.843 171.419 157.677 171.419C157.095 171.419 156.561 171.149 156.257 170.72C155.727 169.976 155.902 168.875 156.648 168.267ZM158.385 173.966C158.488 173.814 158.648 173.707 158.831 173.669C159.014 173.63 159.206 173.663 159.364 173.761C159.523 173.858 159.636 174.011 159.679 174.189C159.722 174.366 159.692 174.553 159.595 174.709C157.663 177.688 153.389 178.149 150.827 175.694C150.7 175.563 150.631 175.389 150.633 175.209C150.635 175.029 150.709 174.857 150.839 174.729C150.969 174.6 151.144 174.526 151.329 174.521C151.514 174.516 151.694 174.581 151.831 174.702C153.738 176.53 156.942 176.191 158.385 173.966ZM151.454 169.37C151.628 169.314 151.818 169.327 151.983 169.404C152.65 169.461 153.241 169.942 153.308 170.596C153.424 171.711 152.01 172.518 151.059 171.868C150.129 171.232 150.378 169.709 151.454 169.37Z" fill="black"/>
<path d="M261.242 59.4648C268.203 60.5275 267.182 62.6494 268.161 79.4174C268.698 91.1124 268.516 102.829 267.613 114.502C266.913 118.613 264.961 121.133 259.918 121.274C236.986 121.902 203.242 123.714 188.881 123.568C186.816 123.548 179.622 130.723 164.851 139.414C155.36 144.997 170.486 123.908 170.827 111.766C171.004 105.384 169.98 105.867 169.952 79.792C169.94 69.5886 168.237 62.1056 176.967 61.2569C202.107 58.8134 256.932 58.8067 261.242 59.4648ZM228.743 62.041C213.48 62.4007 184.307 63.4069 178.543 64.0966C175.726 64.4281 173.711 65.1492 173.798 72.236C174.393 120.493 176.602 112.915 167.37 132.874C167.237 133.16 166.994 133.528 167.319 133.775C167.643 134.022 167.93 133.69 168.184 133.504C191.743 116.194 183.387 120.138 198.587 119.709C257.915 118.036 255.865 118.064 259.822 117.388C263.253 116.798 264.007 114.318 264.416 105.949C264.689 100.358 264.829 87.7143 263.669 65.8969C263.495 62.6013 264.078 61.2104 228.743 62.041Z" fill="#191919"/>
<path d="M186.179 98.7026C183.181 98.1075 184.047 95.1584 186.521 95.0556C196.181 94.6395 245.875 93.7775 255.388 95.5015C256.713 95.7419 257.149 97.4212 255.436 98.0163C252.184 99.1436 187.643 98.9944 186.179 98.7026Z" fill="#0167FF"/>
<path d="M213.468 87.636C186.611 87.6907 187.811 87.6559 186.29 87.5681C185.815 87.5825 185.354 87.4079 185.009 87.0825C184.663 86.7573 184.461 86.3078 184.446 85.8332C184.432 85.3586 184.606 84.8976 184.931 84.5518C185.257 84.2058 185.706 84.0034 186.18 83.989C190.608 83.4917 239.108 82.7374 252.013 83.6674C255.392 83.9128 256.94 84.047 256.965 85.3848C257.001 87.51 256.257 87.5515 213.468 87.636Z" fill="#0167FF"/>
<path d="M224.386 72.3643C254.137 72.6329 257.208 72.1985 257.379 74.2956C257.545 76.3445 255.783 76.3197 230.014 76.4722C185.955 76.7341 184.964 77.5713 184.81 75.146C184.717 73.7087 185.861 72.976 187.317 72.918C199.665 72.4273 212.021 72.2428 224.386 72.3643Z" fill="#0167FF"/>
<path d="M81.2319 83.9162C35.1036 114.651 67.1307 88.6839 65.326 68.4379C64.2356 56.1889 64.456 33.657 64.4593 33.6255C64.7311 25.239 70.4633 25.8706 95.9014 24.9787C118.857 24.1747 139.817 24.2344 149.254 24.566C156.159 24.8097 160.779 23.9277 161.702 29.5475C163.054 41.8918 163.383 54.327 162.685 66.7255C162.403 71.3539 163.535 80.6223 155.697 80.8792C81.217 83.3194 83.3713 82.4906 81.2319 83.9162ZM113.02 27.3079C104.96 27.4289 77.2247 28.4119 72.1736 29.0883C68.6305 29.5657 68.5493 32.4037 68.362 36.5199C68.3454 36.8514 68.5377 64.1278 69.015 71.3323C69.416 77.398 64.8504 85.8326 62.0447 91.2567C61.879 91.565 61.5277 91.9562 61.8525 92.2613C62.1773 92.5663 62.5452 92.1867 62.8385 91.9844C77.8843 81.6468 80.8656 78.6181 86.8879 79.4403C90.0996 79.8796 90.6995 79.5083 139.38 78.2633C154.437 77.8787 157.112 77.9086 157.994 74.2267C160.148 65.3032 158.864 38.6368 158.267 30.5869C157.919 26.0165 153.655 26.6928 113.02 27.3079Z" fill="#191919"/>
<path d="M107.027 60.3831C106.134 54.2462 111.901 52.484 115.852 48.0214C116.409 47.4559 116.807 46.7524 117.003 45.9825C117.199 45.2128 117.187 44.4047 116.967 43.6413C116.748 42.8777 116.329 42.1865 115.755 41.6382C115.18 41.09 114.47 40.7046 113.697 40.5218C112.186 40.1219 110.592 40.1693 109.108 40.6582C107.623 41.1469 106.313 42.056 105.335 43.2753C103.237 46.0503 101.323 43.7726 102.683 41.3407C108.295 31.3661 125.387 38.6883 119.09 49.205C117.524 51.5044 115.569 53.5119 113.311 55.1364C109.377 58.354 111.225 59.836 110.146 64.1544C109.606 66.3228 106.656 65.9514 107.027 60.3831Z" fill="#0167FF"/>
<path d="M109.525 73.1193C106.432 73.169 106.52 69.1573 109.622 69.0678C109.905 69.0474 110.189 69.0865 110.456 69.1825C110.723 69.2783 110.967 69.429 111.173 69.6249C111.378 69.8207 111.54 70.0573 111.648 70.3195C111.757 70.5816 111.81 70.8636 111.803 71.1474C111.796 71.431 111.73 71.7102 111.609 71.9668C111.488 72.2234 111.314 72.4519 111.1 72.6377C110.885 72.8234 110.634 72.9621 110.363 73.045C110.092 73.1279 109.806 73.1532 109.525 73.1193Z" fill="#0167FF"/>
<path d="M279.196 275.822C280.616 275.817 281.99 276.321 283.069 277.244C284.148 278.166 284.86 279.445 285.076 280.85C285.389 283.195 285.469 318.129 285.478 320.624C285.512 328.912 286.216 335.815 277.381 338.719C274.975 339.51 181.001 339.371 139.17 338.622C132.17 338.497 133.262 331.173 133.236 324.546C133.183 311.753 133.156 298.959 133.156 286.164C133.176 283.354 134.299 280.666 136.283 278.678C138.268 276.69 140.954 275.561 143.762 275.538C143.804 275.538 225.194 274.802 279.196 275.822ZM204.622 335.61C277.325 336.079 276.337 336.336 279.067 334.189C284.618 329.821 281.597 326.93 282.293 282.564C282.404 281.753 282.201 280.932 281.725 280.268C281.248 279.605 280.533 279.149 279.731 278.996C278.117 278.459 276.433 278.169 274.733 278.134C274.685 278.134 214.477 277.947 193.754 278.134C144.7 278.585 135.839 274.537 136.048 286.854C136.299 301.633 136.369 316.413 136.257 331.193C136.212 338.26 136.143 335.167 204.618 335.61H204.622Z" fill="#191919"/>
<path d="M145.604 320.859C146.475 309.878 161.367 306.48 171.017 311.788C174.994 313.973 176.776 317.733 177.767 321.942C178.027 323.044 177.175 323.149 176.365 323.149C144.444 323.158 145.314 324.505 145.604 320.859ZM159.786 321.572C176.986 321.521 176.54 322.069 174.086 318.141C167.215 307.122 147.836 311.021 147.571 320.627C147.539 322.036 147.519 321.61 159.786 321.572Z" fill="#191919"/>
<path d="M238.509 287.819C238.765 287.857 239 287.983 239.171 288.178C239.341 288.372 239.437 288.621 239.442 288.879C239.447 289.138 239.36 289.39 239.195 289.59C239.033 289.791 238.803 289.926 238.549 289.973C237.674 290.157 188.634 289.746 188.596 289.746C187.704 289.746 186.224 290.026 186.183 288.705C186.14 287.326 186.138 287.572 212.763 287.572C212.763 287.906 234.443 287.464 238.509 287.819Z" fill="#191919"/>
<path d="M170.22 299.174C170.1 310.64 154.342 309.689 154.486 298.741C154.444 296.669 155.221 294.663 156.648 293.159C158.075 291.656 160.038 290.776 162.109 290.711C164.3 290.779 166.376 291.702 167.893 293.285C169.409 294.867 170.245 296.982 170.22 299.174ZM168.035 299.431C167.883 290.548 156.287 291.056 156.446 299.154C156.606 307.252 168.171 307.252 168.035 299.431Z" fill="#191919"/>
<path d="M223.581 299.689C225.609 299.689 225.616 301.903 223.581 301.925C187.175 302.292 187.578 301.981 187.631 300.784C187.702 299.344 196.325 299.679 223.581 299.689Z" fill="#191919"/>
<path d="M267.252 287.907C269.284 287.934 269.264 290.02 267.303 290.062C242.785 290.524 242.23 290.304 242.327 288.671C242.415 287.221 243.93 287.607 267.252 287.907Z" fill="#191919"/>
<path d="M194.097 326.004C195.225 326.004 196.14 326.919 196.14 328.047C196.14 329.175 195.225 330.09 194.097 330.09C192.969 330.09 192.055 329.175 192.055 328.047C192.055 326.919 192.969 326.004 194.097 326.004Z" stroke="#191919" stroke-width="2"/>
<path d="M206.355 326.004C207.483 326.004 208.397 326.919 208.397 328.047C208.397 329.175 207.483 330.09 206.355 330.09C205.227 330.09 204.312 329.175 204.312 328.047C204.312 326.919 205.227 326.004 206.355 326.004Z" stroke="#191919" stroke-width="2"/>
<path d="M198.866 313.746H194.781" stroke="#191919" stroke-width="2" stroke-linecap="round"/>
<path d="M186.617 305.57L186.978 305.691C188.775 306.29 189.674 306.59 190.188 307.303C190.702 308.016 190.702 308.964 190.702 310.859V314.423C190.702 318.276 190.702 320.202 191.898 321.399C193.095 322.596 195.02 322.596 198.872 322.596H201.595M209.764 322.596H207.041" stroke="#191919" stroke-width="2" stroke-linecap="round"/>
<path d="M190.695 309.66H194.78M191.376 319.194H205.702C207.009 319.194 207.662 319.194 208.173 318.857C208.685 318.519 208.942 317.919 209.457 316.718L210.041 315.356C211.143 312.783 211.694 311.497 211.088 310.579C210.483 309.66 209.084 309.66 206.286 309.66H200.226" stroke="#191919" stroke-width="2" stroke-linecap="round"/>
<path d="M462.404 237.065C462.127 231.862 464.351 226.891 463.856 221.628C463.812 221.378 463.675 221.153 463.473 220.999C463.271 220.844 463.019 220.771 462.766 220.793C462.513 220.815 462.277 220.93 462.105 221.117C461.933 221.304 461.837 221.548 461.835 221.803C462.237 226.905 459.758 231.687 459.875 236.804C459.991 241.92 461.835 245.003 461.239 251.761C461.206 252.068 461.29 252.376 461.475 252.624C461.66 252.872 461.932 253.04 462.236 253.096C462.54 253.151 462.853 253.089 463.114 252.923C463.374 252.757 463.562 252.498 463.639 252.199C465.092 247.328 462.709 242.025 462.462 237.065H462.404ZM445.997 257.066C442.205 252.894 441.218 250.234 440.666 244.303C440.491 242.445 440.264 240.584 440.216 238.723C440.216 238.461 440.112 238.209 439.926 238.024C439.741 237.838 439.489 237.734 439.227 237.734C438.965 237.734 438.714 237.838 438.528 238.024C438.343 238.209 438.239 238.461 438.239 238.723C438.239 243.084 437.817 245.991 439.169 250.569C439.957 253.906 441.865 256.872 444.575 258.971C445.766 259.755 446.869 258.013 446.027 257.052L445.997 257.066ZM455.439 237.604C456.343 238.092 456.892 241.004 448.304 238.534C444.782 237.524 441.503 235.811 438.663 233.496C435.823 231.182 433.482 228.316 431.782 225.07C431.258 224.124 432.885 223.237 433.438 224.154C435.801 227.992 439.078 231.185 442.976 233.448C449.559 237.387 453.589 236.605 455.451 237.606L455.439 237.604Z" fill="#191919"/>
<path d="M451.654 209.315C449.59 206.916 448.994 215.129 443.401 212.048C443.177 211.96 442.928 211.959 442.704 212.046C442.48 212.133 442.296 212.301 442.19 212.517C442.084 212.732 442.062 212.98 442.131 213.211C442.199 213.442 442.351 213.639 442.557 213.762C447.419 216.859 453.355 211.293 451.654 209.315ZM451.654 190.681C451.356 188.746 447.744 186.421 445.581 186.073C443.417 185.725 443.487 187.881 445.179 188.428C446.412 188.806 448.811 189.153 449.93 191.014C450.898 192.614 451.786 191.537 451.654 190.681ZM434.696 187.064C432.469 186.593 428.505 190.669 430.118 191.569C430.685 191.888 432.342 189.78 434.086 189.272C435.83 188.764 435.261 187.182 434.696 187.064ZM433.053 194.402C431.836 194.804 432.197 199.069 433.75 198.663C435.303 198.257 434.612 193.89 433.053 194.402ZM446.017 193.691C443.951 193.691 444.912 198.052 445.928 198.052C447.383 198.136 447.833 193.689 446.013 193.689L446.017 193.691ZM441.999 205.32C442.74 205.551 442.929 207.093 440.546 206.773C438.164 206.454 434.546 204.593 436.729 203.459C440.012 201.773 439.634 199.593 441.089 200.188C442.543 200.783 440.171 203.618 439.14 204.432C441.115 205.047 441.804 205.184 442.005 205.31L441.999 205.32Z" fill="#191919"/>
<path d="M443.021 264.884C443.021 285.597 451.491 377.769 481.717 370.225C504.066 364.656 519.119 316.441 521.24 297.037C524.916 263.604 509.251 245.794 480.104 234.54C478.201 233.813 479.3 236.735 473.593 241.487C469.161 245.195 465.716 245.195 466.518 246.867C467.649 249.206 476.689 243.334 480.538 237.157C506.694 248.231 522.433 262.841 518.582 296.274C516.111 317.597 503.425 358.676 483.226 367.148C453.582 379.619 445.924 282.45 445.183 264.105C448.482 259.744 459.874 256.985 465.525 258.38C468.387 275.649 473.265 292.524 480.058 308.656C481.743 312.77 484.853 321.055 487.322 324.413C487.816 325.112 489.228 324.53 488.907 323.716C486.83 318.469 484.547 313.294 482.384 308.09C483.676 307.523 488.893 289.2 488.704 284.731C488.704 283.917 487.251 283.525 487.048 284.383C484.895 291.461 484.869 295.735 481.424 305.634C475.582 290.187 470.986 274.297 467.679 258.116C466.401 252.381 443.021 257.244 443.021 264.884ZM502.511 359.293C503.616 364.674 504.572 371.619 506.143 376.977C506.463 378.052 504.908 378.43 504.385 377.515C502.577 374.61 500.112 362.98 500.695 359.592C500.838 358.756 502.304 358.29 502.511 359.293ZM399.734 338.275C397.238 340.681 393.992 342.156 390.539 342.452C387.086 342.749 383.636 341.849 380.768 339.903C362.687 328.71 350.791 280 344.181 257.777C350.473 258.315 359.831 253.983 364.974 249.939C368.3 258.458 384.809 291.83 391.302 299.099C391.465 299.259 391.679 299.357 391.906 299.378C392.134 299.398 392.362 299.34 392.551 299.211C392.74 299.083 392.879 298.894 392.944 298.675C393.01 298.456 392.997 298.221 392.909 298.01C392.235 296.497 391.443 295.039 390.541 293.649C393.331 293.532 400.493 261.898 428.25 247.381C430.452 246.489 432.599 245.465 434.678 244.315C435.97 243.414 436.131 239.038 422.312 248.006C406.733 258.094 395.808 274.956 389.647 292.18C379.896 276.19 375.115 265.453 366.804 248.456C366.032 246.859 364.708 247.004 363.403 247.92C356.747 252.773 351.91 254.969 345.182 255.355C342.187 255.53 341.62 256.386 342.275 259.236C346.883 279.361 361.838 331.911 380.058 342.26C386.828 346.11 395.778 345.761 401.17 339.67C401.941 338.797 400.567 337.475 399.718 338.217L399.734 338.275ZM419.596 268.837C400.382 301.237 412.331 340.469 418.143 374.941C418.174 375.163 418.119 375.389 417.99 375.572C417.861 375.756 417.667 375.883 417.448 375.929C417.228 375.975 417 375.937 416.808 375.821C416.616 375.705 416.475 375.521 416.414 375.305C407.492 343.486 399.501 296.159 417.763 267.609C418.535 266.454 420.311 267.633 419.596 268.837Z" fill="#191919"/>
<path d="M365.678 225.072C365.678 222.861 365.547 218.167 364.298 216.35C362.405 213.662 360.378 211.071 358.225 208.587C357.622 207.89 356.393 208.748 356.77 209.634C358.222 212.351 359.974 214.896 361.993 217.222C363.229 219.011 363.446 224.491 363.257 226.73C362.837 232.688 360.191 238.357 361.805 244.331C362.11 245.509 364.129 245.059 363.882 243.867C362.574 237.543 365.8 231.352 365.772 225.042L365.678 225.072ZM357.556 223.241C358.458 222.863 359.113 224.141 358.514 224.694C356.481 226.388 354.889 228.551 353.877 230.997C352.864 233.443 352.461 236.098 352.702 238.735C352.819 240.059 350.798 240.189 350.639 238.851C349.956 233.042 352.981 225.15 357.556 223.241ZM345.422 252.178C344.564 249.781 338.752 243.282 336.806 240.463C334.859 237.643 333.899 231.741 333.666 228.166C336.573 225.172 340.568 231.277 341.876 232.963C344.783 236.61 345.233 233.936 345.175 233.675C343.646 230.738 341.525 228.149 338.947 226.072C336.448 224.465 331.681 224.778 331.45 227.881C331.314 232.501 332.285 237.087 334.283 241.255C337.208 245.458 340.43 249.445 343.925 253.187C344.653 253.667 345.772 253.187 345.378 252.17L345.422 252.178ZM344.217 221.231C341.675 219.779 337.852 219.604 335.846 222.061C335.75 222.165 335.676 222.287 335.628 222.42C335.58 222.553 335.558 222.694 335.564 222.835C335.577 223.12 335.702 223.388 335.912 223.581C336.122 223.773 336.4 223.875 336.685 223.862C336.97 223.85 337.238 223.725 337.431 223.514C338.366 222.828 339.51 222.488 340.668 222.552C341.826 222.616 342.926 223.079 343.781 223.864C346.25 225.709 348.648 229.475 350.073 230.069C351.119 230.491 352.266 229.358 351.525 228.462C349.529 225.644 347.056 223.198 344.217 221.233V221.231ZM355.812 213.965C356.379 214.632 355.651 216.043 354.852 215.651C351.236 213.842 345.611 212.436 341.312 218.557C340.466 219.734 338.781 218.384 339.538 217.206C343.925 210.46 353.182 210.977 355.81 214.037L355.812 213.965Z" fill="#191919"/>
<path d="M420.455 181.173C423.669 186.685 458.875 181.986 460.88 179.72C462.885 177.453 463.554 155.983 442.702 155.286C421.849 154.588 419.844 180.128 420.455 181.173ZM455.33 222.891C448.901 230.493 439.753 226.757 435.263 218.616C431.106 211.117 429.035 196.698 428.621 188.091C428.549 186.769 426.472 186.639 426.514 188.091C426.514 189.183 426.602 190.272 426.661 191.377C420.18 194.371 417.448 198.21 417.942 203.587C418.436 208.965 424.917 210.1 424.451 214.722C423.985 219.344 412.522 219.446 410.778 228.065C409.034 236.684 416.387 234.229 416.285 239.548C416.182 244.867 402.931 247.166 406.011 257.588C411.475 249.694 424.509 240.681 435.218 238.836C435.122 237.622 435.418 236.409 436.062 235.376C430.67 231.22 424.306 220.085 432.966 219.388C440.783 233.923 454.261 230.493 456.898 223.865C457.234 223.035 455.968 222.222 455.374 222.919L455.33 222.891ZM465.211 204.242C465.211 202.192 467.638 203.209 469.904 200.926C473.319 197.496 471.967 190.491 470.384 188.28C467.572 184.372 465.312 189.285 464.57 188.964C461.868 187.903 461.025 183.92 460.619 182.686C468.16 179.444 465.967 158.802 450.012 154.456C459.586 150.386 472.723 151.084 480.091 161.827C487.46 172.57 480.091 175.926 486.295 183.747C492.498 191.568 498.909 188.644 501.785 197.396C504.662 206.147 495.305 208.573 501.291 216.625C507.278 224.677 516.432 223.588 518.728 230.187C521.025 236.787 515.488 242.862 519.761 247.817C524.034 252.773 529.466 262.889 522.23 267.298C515.663 247.703 490.756 230.682 471.023 230.121C471.361 231.39 471.604 232.682 471.75 233.987C471.778 234.2 471.731 234.416 471.616 234.597C471.502 234.778 471.327 234.914 471.123 234.979C470.919 235.045 470.698 235.037 470.499 234.957C470.3 234.877 470.136 234.729 470.035 234.54C467.172 228.879 465.211 209.931 465.211 204.242Z" fill="#191919"/>
</svg>
