<svg width="20" height="19" viewBox="0 0 20 19" fill="none" xmlns="http://www.w3.org/2000/svg">
<path d="M17.1987 2.08775C18.9814 3.38966 20.1698 5.41743 19.9802 7.24933C19.8032 9.08123 18.2607 10.7288 17.1861 12.8026C16.1114 14.8765 15.5045 17.3766 13.9242 18.2753C12.3312 19.174 9.75198 18.4712 7.5521 17.4803C5.33958 16.478 3.48106 15.1876 2.11561 13.4363C0.75017 11.6966 -0.13484 9.496 0.0168764 7.23781C0.155949 4.97962 1.34439 2.67534 3.29141 1.39646C5.22579 0.12911 7.93139 -0.12436 10.4726 0.0484611C13.0139 0.209761 15.4034 0.78583 17.1987 2.08775Z" fill="#B9B9BA"/>
<path fill-rule="evenodd" clip-rule="evenodd" d="M9.69531 7.82789C9.69531 7.72447 9.77915 7.64062 9.88258 7.64062H11.98C12.0834 7.64062 12.1672 7.72447 12.1672 7.82789C12.1672 7.93132 12.0834 8.01516 11.98 8.01516H9.88258C9.77915 8.01516 9.69531 7.93132 9.69531 7.82789Z" fill="black"/>
<path fill-rule="evenodd" clip-rule="evenodd" d="M9.71875 8.87477C9.71875 8.77134 9.80259 8.6875 9.90602 8.6875H12.0034C12.1068 8.6875 12.1907 8.77134 12.1907 8.87477C12.1907 8.97819 12.1068 9.06203 12.0034 9.06203H9.90602C9.80259 9.06203 9.71875 8.97819 9.71875 8.87477Z" fill="black"/>
<path fill-rule="evenodd" clip-rule="evenodd" d="M9.73438 9.92555C9.73438 9.82212 9.81822 9.73828 9.92164 9.73828H12.019C12.1224 9.73828 12.2063 9.82212 12.2063 9.92555C12.2063 10.029 12.1224 10.1128 12.019 10.1128H9.92164C9.81822 10.1128 9.73438 10.029 9.73438 9.92555Z" fill="black"/>
<path fill-rule="evenodd" clip-rule="evenodd" d="M9.75 10.9724C9.75 10.869 9.83384 10.7852 9.93727 10.7852H12.0346C12.1381 10.7852 12.2219 10.869 12.2219 10.9724C12.2219 11.0758 12.1381 11.1597 12.0346 11.1597H9.93727C9.83384 11.1597 9.75 11.0758 9.75 10.9724Z" fill="black"/>
<path fill-rule="evenodd" clip-rule="evenodd" d="M3.85938 5.1328C3.85938 4.78116 4.14444 4.49609 4.49608 4.49609H5.6384C5.74183 4.49609 5.82567 4.57994 5.82567 4.68336C5.82567 4.78678 5.74183 4.87063 5.6384 4.87063H4.49608C4.35129 4.87063 4.23391 4.988 4.23391 5.1328V13.6534C4.23391 13.7982 4.35129 13.9156 4.49608 13.9156H13.1478C13.2926 13.9156 13.4099 13.7982 13.4099 13.6534V5.1328C13.4099 4.988 13.2926 4.87063 13.1478 4.87063H9.45863C9.3552 4.87063 9.27136 4.78678 9.27136 4.68336C9.27136 4.57994 9.3552 4.49609 9.45863 4.49609H13.1478C13.4994 4.49609 13.7845 4.78116 13.7845 5.1328V13.6534C13.7845 14.005 13.4994 14.2901 13.1478 14.2901H4.49608C4.14444 14.2901 3.85938 14.005 3.85938 13.6534V5.1328Z" fill="black"/>
<path fill-rule="evenodd" clip-rule="evenodd" d="M6.1121 12.474C6.1121 12.9084 5.75996 13.2605 5.32558 13.2605C4.8912 13.2605 4.53906 12.9084 4.53906 12.474C4.53906 12.0396 4.8912 11.6875 5.32558 11.6875C5.75996 11.6875 6.1121 12.0396 6.1121 12.474ZM5.32558 12.886C5.55311 12.886 5.73756 12.7015 5.73756 12.474C5.73756 12.2465 5.55311 12.062 5.32558 12.062C5.09805 12.062 4.91359 12.2465 4.91359 12.474C4.91359 12.7015 5.09805 12.886 5.32558 12.886Z" fill="black"/>
<path fill-rule="evenodd" clip-rule="evenodd" d="M8.08866 12.474C8.08866 12.9084 7.73652 13.2605 7.30214 13.2605C6.86776 13.2605 6.51562 12.9084 6.51562 12.474C6.51562 12.0396 6.86776 11.6875 7.30214 11.6875C7.73652 11.6875 8.08866 12.0396 8.08866 12.474ZM7.30214 12.886C7.52967 12.886 7.71413 12.7015 7.71413 12.474C7.71413 12.2465 7.52967 12.062 7.30214 12.062C7.07461 12.062 6.89016 12.2465 6.89016 12.474C6.89016 12.7015 7.07461 12.886 7.30214 12.886Z" fill="black"/>
<path fill-rule="evenodd" clip-rule="evenodd" d="M9.625 5.73414C9.625 5.63072 9.70884 5.54688 9.81227 5.54688H9.88717C9.9906 5.54688 10.0744 5.63072 10.0744 5.73414C10.0744 5.83757 9.9906 5.92141 9.88717 5.92141H9.81227C9.70884 5.92141 9.625 5.83757 9.625 5.73414Z" fill="black"/>
<path fill-rule="evenodd" clip-rule="evenodd" d="M10.6094 5.73414C10.6094 5.63072 10.6932 5.54688 10.7966 5.54688H10.8715C10.975 5.54688 11.0588 5.63072 11.0588 5.73414C11.0588 5.83757 10.975 5.92141 10.8715 5.92141H10.7966C10.6932 5.92141 10.6094 5.83757 10.6094 5.73414Z" fill="black"/>
<path fill-rule="evenodd" clip-rule="evenodd" d="M11.5781 5.73414C11.5781 5.63072 11.662 5.54688 11.7654 5.54688H11.8403C11.9437 5.54688 12.0276 5.63072 12.0276 5.73414C12.0276 5.83757 11.9437 5.92141 11.8403 5.92141H11.7654C11.662 5.92141 11.5781 5.83757 11.5781 5.73414Z" fill="black"/>
<path fill-rule="evenodd" clip-rule="evenodd" d="M4.64844 5.75367C4.64844 5.65025 4.73228 5.56641 4.8357 5.56641H7.75705C7.86048 5.56641 7.94432 5.65025 7.94432 5.75367C7.94432 5.8571 7.86048 5.94094 7.75705 5.94094H4.8357C4.73228 5.94094 4.64844 5.8571 4.64844 5.75367Z" fill="black"/>
<path d="M19.6376 12.7321L16.7355 9.82805L16.3405 10.2254L16.2493 10.3172L15.7935 9.85862C15.8998 9.73635 16.0062 9.61407 16.0974 9.4918C16.1429 9.41537 16.2037 9.33895 16.2493 9.27782C16.2645 9.24725 16.2949 9.20139 16.3101 9.17083C16.3405 9.12497 16.3556 9.0944 16.386 9.04855C16.7659 8.40661 17.009 7.65768 17.0698 6.86289C17.3129 4.02 15.2009 1.49809 12.3748 1.25354C9.53352 1.00899 7.04169 3.13351 6.79859 5.9764C6.75301 6.54192 6.79859 7.10744 6.92014 7.62711C6.93533 7.70353 6.96572 7.77995 6.98092 7.85637C6.99611 7.90223 7.0113 7.94808 7.0265 7.99393C7.0265 8.00922 7.0265 8.00921 7.04169 8.0245C7.05689 8.07035 7.07208 8.10092 7.08728 8.14677C7.25441 8.65116 7.51271 9.12497 7.83178 9.56822C7.83178 9.56822 7.83178 9.56822 7.84698 9.56822C8.59149 10.5617 9.70065 11.2801 10.9921 11.5246C10.977 11.5246 10.9618 11.5246 10.9466 11.5399C11.2656 11.601 11.5999 11.6469 11.919 11.6469C12.9826 11.6469 13.9854 11.3412 14.8514 10.7451C15.0034 10.6381 15.1553 10.5158 15.3073 10.3936L15.7631 10.8521L15.2009 11.4023L18.103 14.3064C18.3157 14.5203 18.5892 14.6426 18.8779 14.6426C19.1666 14.6426 19.4552 14.5356 19.668 14.3216C19.8807 14.1077 20.0022 13.8325 20.0022 13.5421C19.9566 13.2212 19.8503 12.9461 19.6376 12.7321ZM15.6415 6.74062C15.52 8.13149 14.6539 9.2931 13.4536 9.82805C12.8914 10.0879 12.2684 10.1949 11.6151 10.149C10.4907 10.0573 9.53352 9.46123 8.91056 8.60531C8.40916 7.90223 8.15086 7.03102 8.22683 6.09867C8.40916 4.05057 10.2021 2.52214 12.2533 2.69027C14.2893 2.87368 15.8087 4.69252 15.6415 6.74062Z" fill="#343433"/>
</svg>
