<svg width="40" height="38" viewBox="0 0 40 38" fill="none" xmlns="http://www.w3.org/2000/svg">
<path d="M34.3974 4.48799C37.9627 7.09183 40.3396 11.1474 39.9603 14.8112C39.6063 18.475 36.5214 21.7701 34.3721 25.9178C32.2228 30.0655 31.0091 35.0658 27.8483 36.8631C24.6623 38.6604 19.504 37.2548 15.1042 35.2732C10.6792 33.2684 6.96211 30.6876 4.23123 27.1851C1.50034 23.7057 -0.269679 19.3045 0.0337527 14.7881C0.311899 10.2717 2.68878 5.66318 6.58282 3.10543C10.4516 0.570721 15.8628 0.0637804 20.9453 0.409422C26.0277 0.732021 30.8068 1.88416 34.3974 4.48799Z" fill="white"/>
<path fill-rule="evenodd" clip-rule="evenodd" d="M19.3906 15.9644C19.3906 15.7575 19.5583 15.5898 19.7652 15.5898H23.9599C24.1668 15.5898 24.3344 15.7575 24.3344 15.9644C24.3344 16.1712 24.1668 16.3389 23.9599 16.3389H19.7652C19.5583 16.3389 19.3906 16.1712 19.3906 15.9644Z" fill="black"/>
<path fill-rule="evenodd" clip-rule="evenodd" d="M19.4375 18.062C19.4375 17.8552 19.6052 17.6875 19.812 17.6875H24.0068C24.2136 17.6875 24.3813 17.8552 24.3813 18.062C24.3813 18.2689 24.2136 18.4366 24.0068 18.4366H19.812C19.6052 18.4366 19.4375 18.2689 19.4375 18.062Z" fill="black"/>
<path fill-rule="evenodd" clip-rule="evenodd" d="M19.4688 20.1597C19.4688 19.9528 19.6364 19.7852 19.8433 19.7852H24.038C24.2449 19.7852 24.4126 19.9528 24.4126 20.1597C24.4126 20.3665 24.2449 20.5342 24.038 20.5342H19.8433C19.6364 20.5342 19.4688 20.3665 19.4688 20.1597Z" fill="black"/>
<path fill-rule="evenodd" clip-rule="evenodd" d="M19.5 22.2573C19.5 22.0505 19.6677 21.8828 19.8745 21.8828H24.0693C24.2761 21.8828 24.4438 22.0505 24.4438 22.2573C24.4438 22.4642 24.2761 22.6319 24.0693 22.6319H19.8745C19.6677 22.6319 19.5 22.4642 19.5 22.2573Z" fill="black"/>
<path fill-rule="evenodd" clip-rule="evenodd" d="M7.71875 10.5742C7.71875 9.87091 8.28887 9.30078 8.99216 9.30078H11.2768C11.4837 9.30078 11.6513 9.46846 11.6513 9.67531C11.6513 9.88216 11.4837 10.0498 11.2768 10.0498H8.99216C8.70257 10.0498 8.46781 10.2846 8.46781 10.5742V27.6154C8.46781 27.905 8.70257 28.1397 8.99216 28.1397H26.2955C26.5851 28.1397 26.8199 27.905 26.8199 27.6154V10.5742C26.8199 10.2846 26.5851 10.0498 26.2955 10.0498H18.9173C18.7104 10.0498 18.5427 9.88216 18.5427 9.67531C18.5427 9.46846 18.7104 9.30078 18.9173 9.30078H26.2955C26.9988 9.30078 27.5689 9.87091 27.5689 10.5742V27.6154C27.5689 28.3187 26.9988 28.8888 26.2955 28.8888H8.99216C8.28887 28.8888 7.71875 28.3187 7.71875 27.6154V10.5742Z" fill="black"/>
<path fill-rule="evenodd" clip-rule="evenodd" d="M12.2242 25.2566C12.2242 26.1254 11.5199 26.8297 10.6512 26.8297C9.7824 26.8297 9.07812 26.1254 9.07812 25.2566C9.07812 24.3879 9.7824 23.6836 10.6512 23.6836C11.5199 23.6836 12.2242 24.3879 12.2242 25.2566ZM10.6512 26.0806C11.1062 26.0806 11.4751 25.7117 11.4751 25.2566C11.4751 24.8016 11.1062 24.4327 10.6512 24.4327C10.1961 24.4327 9.82719 24.8016 9.82719 25.2566C9.82719 25.7117 10.1961 26.0806 10.6512 26.0806Z" fill="black"/>
<path fill-rule="evenodd" clip-rule="evenodd" d="M16.1773 25.2566C16.1773 26.1254 15.473 26.8297 14.6043 26.8297C13.7355 26.8297 13.0312 26.1254 13.0312 25.2566C13.0312 24.3879 13.7355 23.6836 14.6043 23.6836C15.473 23.6836 16.1773 24.3879 16.1773 25.2566ZM14.6043 26.0806C15.0593 26.0806 15.4283 25.7117 15.4283 25.2566C15.4283 24.8016 15.0593 24.4327 14.6043 24.4327C14.1492 24.4327 13.7803 24.8016 13.7803 25.2566C13.7803 25.7117 14.1492 26.0806 14.6043 26.0806Z" fill="black"/>
<path fill-rule="evenodd" clip-rule="evenodd" d="M19.25 11.773C19.25 11.5661 19.4177 11.3984 19.6245 11.3984H19.7743C19.9812 11.3984 20.1489 11.5661 20.1489 11.773C20.1489 11.9798 19.9812 12.1475 19.7743 12.1475H19.6245C19.4177 12.1475 19.25 11.9798 19.25 11.773Z" fill="black"/>
<path fill-rule="evenodd" clip-rule="evenodd" d="M21.2188 11.773C21.2188 11.5661 21.3864 11.3984 21.5933 11.3984H21.7431C21.9499 11.3984 22.1176 11.5661 22.1176 11.773C22.1176 11.9798 21.9499 12.1475 21.7431 12.1475H21.5933C21.3864 12.1475 21.2188 11.9798 21.2188 11.773Z" fill="black"/>
<path fill-rule="evenodd" clip-rule="evenodd" d="M23.1562 11.773C23.1562 11.5661 23.3239 11.3984 23.5308 11.3984H23.6806C23.8874 11.3984 24.0551 11.5661 24.0551 11.773C24.0551 11.9798 23.8874 12.1475 23.6806 12.1475H23.5308C23.3239 12.1475 23.1562 11.9798 23.1562 11.773Z" fill="black"/>
<path fill-rule="evenodd" clip-rule="evenodd" d="M9.29688 11.812C9.29688 11.6052 9.46456 11.4375 9.67141 11.4375H15.5141C15.721 11.4375 15.8886 11.6052 15.8886 11.812C15.8886 12.0189 15.721 12.1866 15.5141 12.1866H9.67141C9.46456 12.1866 9.29688 12.0189 9.29688 11.812Z" fill="black"/>
<path d="M39.2751 25.7766L33.471 19.9686L32.6809 20.7634L32.4986 20.9468L31.5869 20.0297C31.7997 19.7852 32.0124 19.5406 32.1947 19.2961C32.2859 19.1432 32.4074 18.9904 32.4986 18.8681C32.529 18.807 32.5897 18.7153 32.6201 18.6542C32.6809 18.5624 32.7113 18.5013 32.7721 18.4096C33.5318 17.1257 34.018 15.6279 34.1395 14.0383C34.6258 8.35251 30.4018 3.30868 24.7496 2.81958C19.067 2.33048 14.0834 6.57953 13.5972 12.2653C13.506 13.3963 13.5972 14.5274 13.8403 15.5667C13.8707 15.7196 13.9314 15.8724 13.9618 16.0252C13.9922 16.117 14.0226 16.2087 14.053 16.3004C14.053 16.3309 14.053 16.3309 14.0834 16.3615C14.1138 16.4532 14.1442 16.5143 14.1746 16.606C14.5088 17.6148 15.0254 18.5624 15.6636 19.4489C15.6636 19.4489 15.6636 19.4489 15.694 19.4489C17.183 21.4359 19.4013 22.8726 21.9843 23.3617C21.9539 23.3617 21.9235 23.3617 21.8931 23.3923C22.5313 23.5146 23.1998 23.6063 23.838 23.6063C25.9651 23.6063 27.9708 22.9949 29.7029 21.8027C30.0068 21.5887 30.3106 21.3442 30.6145 21.0996L31.5262 22.0167L30.4018 23.1172L36.2059 28.9252C36.6314 29.3532 37.1784 29.5977 37.7557 29.5977C38.3331 29.5977 38.9105 29.3838 39.3359 28.9558C39.7613 28.5278 40.0044 27.9776 40.0044 27.3968C39.9133 26.7548 39.7006 26.2046 39.2751 25.7766ZM31.2831 13.7937C31.04 16.5755 29.3078 18.8987 26.9072 19.9686C25.7828 20.4883 24.5369 20.7023 23.2302 20.6105C20.9815 20.4271 19.067 19.235 17.8211 17.5231C16.8183 16.117 16.3017 14.3745 16.4537 12.5098C16.8183 8.41365 20.4041 5.35678 24.5065 5.69304C28.5785 6.05986 31.6173 9.69753 31.2831 13.7937Z" fill="#343433"/>
</svg>
