<svg width="36" height="36" viewBox="0 0 36 36" fill="none" xmlns="http://www.w3.org/2000/svg">
<circle cx="18" cy="18" r="18" fill="#0167FF" fill-opacity="0.2"/>
<path d="M26.22 24.8592C25.7367 23.4207 23.8102 22.5202 22.4367 21.9166C21.8986 21.6809 20.4089 21.2811 20.2299 20.6036C20.1658 20.3595 20.1744 20.1293 20.227 19.9088C20.1434 19.9252 20.0585 19.9336 19.9733 19.934H19.0783C18.735 19.9336 18.4057 19.797 18.163 19.5541C17.9202 19.3113 17.7836 18.9821 17.7833 18.6387C17.7833 17.9252 18.3641 17.3451 19.0783 17.3451H19.9733C20.269 17.3451 20.5493 17.4452 20.7754 17.6237C21.0971 17.5813 21.4146 17.5118 21.7246 17.4159C22.116 16.5958 22.4213 15.6152 22.4897 14.7711C22.7818 11.1596 20.5678 9.0466 17.3933 9.41188C15.0852 9.67756 13.7064 11.3986 13.5574 13.6143C13.4067 15.8727 14.244 17.5407 15.1335 18.7642C15.523 19.2992 15.9322 19.6431 15.8693 20.2877C15.7963 21.05 14.9813 21.2624 14.3983 21.4966C13.7076 21.774 12.9636 22.195 12.6123 22.3896C11.4019 23.058 10.0735 23.863 9.77499 24.9641C9.11379 27.4044 11.3467 28.1436 13.1902 28.4849C14.7723 28.7768 16.5562 28.7998 18.0235 28.7998C20.6777 28.7998 25.4503 28.6935 26.22 26.6984C26.4389 26.1322 26.3451 25.23 26.22 24.8592Z" fill="#0167FF"/>
<path d="M20.5368 18.2735C20.4755 18.1792 20.3916 18.1016 20.2928 18.0479C20.194 17.9941 20.0833 17.9658 19.9708 17.9656H19.0759C18.9858 17.9632 18.8962 17.9789 18.8123 18.0117C18.7284 18.0445 18.652 18.0937 18.5874 18.1566C18.5229 18.2194 18.4716 18.2946 18.4366 18.3775C18.4015 18.4605 18.3835 18.5497 18.3835 18.6398C18.3835 18.7299 18.4015 18.819 18.4366 18.902C18.4716 18.985 18.5229 19.0601 18.5874 19.123C18.652 19.1858 18.7284 19.2351 18.8123 19.2679C18.8962 19.3007 18.9858 19.3163 19.0759 19.3139H19.9708C20.094 19.3138 20.2147 19.2797 20.3197 19.2154C20.4246 19.1511 20.5098 19.059 20.5658 18.9494C21.8136 18.8512 22.8988 18.4701 23.6606 17.9073C23.8356 18.0201 24.0424 18.0861 24.2656 18.0861H24.3218C24.4697 18.0861 24.6161 18.057 24.7527 18.0004C24.8893 17.9438 25.0134 17.8608 25.1179 17.7562C25.2224 17.6516 25.3052 17.5274 25.3617 17.3907C25.4182 17.2541 25.4471 17.1076 25.4469 16.9598V14.7115C25.447 14.4991 25.3867 14.2911 25.2732 14.1116C25.1597 13.9322 24.9975 13.7886 24.8056 13.6977C24.6405 10.0874 21.6518 7.19922 18.0009 7.19922C14.35 7.19922 11.3608 10.0874 11.1964 13.6977C11.0044 13.7885 10.8421 13.932 10.7285 14.1115C10.6149 14.291 10.5546 14.499 10.5547 14.7115V16.9598C10.5545 17.1076 10.5834 17.2539 10.6398 17.3905C10.6962 17.5271 10.779 17.6513 10.8834 17.7559C10.9878 17.8605 11.1118 17.9435 11.2483 18.0001C11.3848 18.0568 11.5311 18.086 11.6788 18.0861H11.7357C11.8836 18.0861 12.0299 18.0569 12.1665 18.0003C12.3031 17.9436 12.4271 17.8607 12.5316 17.7561C12.636 17.6514 12.7189 17.5273 12.7753 17.3907C12.8318 17.254 12.8608 17.1076 12.8606 16.9598V14.7115C12.8605 14.5021 12.8018 14.2969 12.6912 14.1191C12.5806 13.9413 12.4225 13.798 12.2347 13.7054C12.3952 10.6634 14.9196 8.23866 18.0009 8.23866C21.0811 8.23866 23.6066 10.6634 23.7664 13.7054C23.5789 13.7982 23.4209 13.9415 23.3104 14.1193C23.2 14.2971 23.1414 14.5022 23.1412 14.7115V16.9598C23.1412 17.1091 23.1703 17.248 23.2214 17.3779C22.5657 17.8471 21.6112 18.1814 20.5368 18.2735Z" fill="#0167FF"/>
</svg>
