<svg width="36" height="36" viewBox="0 0 36 36" fill="none" xmlns="http://www.w3.org/2000/svg">
<circle cx="18" cy="18" r="18" fill="#0167FF" fill-opacity="0.2"/>
<path d="M23.0663 21.0525V22.1175C23.0663 22.1362 23.0663 22.155 23.0625 22.1737C23.0484 22.4186 22.941 22.6487 22.7625 22.8168C22.5839 22.9849 22.3477 23.0782 22.1025 23.0775H13.8863C13.3725 23.0775 12.9525 22.6763 12.9263 22.1737C12.9225 22.155 12.9225 22.1362 12.9225 22.1175V21.0525C12.9161 19.9226 13.7108 18.9608 14.7788 18.6863L15.6225 18.405C16.8581 19.5975 19.1344 19.5975 20.37 18.405L21.2175 18.6863C22.2788 18.9713 23.0756 19.9237 23.0663 21.0525ZM27.1088 18.5325L26.5425 18.345C25.7175 19.2394 24.2063 19.5499 23.0775 19.0125C23.5567 19.584 23.8184 20.3066 23.8162 21.0525V22.1175C23.8162 22.1362 23.8163 22.155 23.8125 22.1737H27.6525C27.877 22.1728 28.092 22.0832 28.2507 21.9244C28.4094 21.7657 28.499 21.5507 28.5 21.3263V20.4675C28.5 19.59 27.9413 18.8137 27.1088 18.5325ZM26.6813 16.1775C26.6813 14.88 25.6275 13.8263 24.33 13.8263C23.0363 13.8263 21.9788 14.88 21.9788 16.1775C21.9788 17.475 23.0363 18.5287 24.33 18.5287C25.6275 18.5287 26.6813 17.475 26.6813 16.1775ZM15.1725 15.7425C15.1725 17.2987 16.44 18.5625 17.9963 18.5625C19.5488 18.5625 20.8163 17.2987 20.8163 15.7425C20.8163 14.1862 19.5488 12.9225 17.9963 12.9225C16.44 12.9225 15.1725 14.1862 15.1725 15.7425ZM9.31875 16.1775C9.31875 17.475 10.3725 18.5287 11.67 18.5287C12.9638 18.5287 14.0175 17.475 14.0175 16.1775C14.0175 14.88 12.9638 13.8263 11.67 13.8263C10.3725 13.8263 9.31875 14.88 9.31875 16.1775ZM12.1725 22.1175V21.0525C12.1725 20.295 12.435 19.5825 12.9075 19.02C12.5172 19.1904 12.0959 19.2785 11.67 19.2787C10.8038 19.2787 10.02 18.9225 9.46125 18.345L8.89125 18.5363C8.48578 18.6711 8.13312 18.9302 7.88336 19.2769C7.6336 19.6236 7.49946 20.0402 7.5 20.4675V21.3263C7.50099 21.5507 7.59059 21.7657 7.74932 21.9244C7.90804 22.0832 8.12303 22.1728 8.3475 22.1737H12.1763C12.1725 22.155 12.1725 22.1362 12.1725 22.1175ZM26.8253 22.9792C26.7833 22.9533 26.7367 22.936 26.688 22.9281C26.6394 22.9203 26.5896 22.9221 26.5417 22.9335C26.4937 22.945 26.4485 22.9658 26.4086 22.9947C26.3688 23.0237 26.335 23.0602 26.3093 23.1022C24.5186 26.0122 21.4125 27.75 18 27.75C14.5875 27.75 11.4814 26.0126 9.69075 23.1022C9.66545 23.0593 9.63183 23.0218 9.59187 22.992C9.55191 22.9622 9.50641 22.9407 9.45802 22.9286C9.40964 22.9166 9.35934 22.9144 9.31008 22.922C9.26081 22.9297 9.21357 22.9471 9.17111 22.9732C9.12865 22.9993 9.09183 23.0337 9.0628 23.0742C9.03377 23.1147 9.01311 23.1606 9.00203 23.2093C8.99095 23.2579 8.98967 23.3082 8.99827 23.3573C9.00688 23.4064 9.02518 23.4533 9.05213 23.4952C10.98 26.6287 14.325 28.5 18 28.5C21.675 28.5 25.02 26.6287 26.9479 23.4952C26.9737 23.4533 26.991 23.4067 26.9988 23.3581C27.0067 23.3095 27.0048 23.2598 26.9934 23.2119C26.9821 23.1639 26.9613 23.1187 26.9325 23.0788C26.9036 23.0389 26.8672 23.0051 26.8253 22.9792ZM7.87463 18.15C7.97373 18.1506 8.06918 18.1126 8.14068 18.044C8.21217 17.9754 8.25409 17.8815 8.2575 17.7825C8.36888 12.5269 12.7395 8.25 18 8.25C23.2605 8.25 27.6311 12.5265 27.7425 17.7825C27.7445 17.8807 27.7848 17.9741 27.855 18.0428C27.9251 18.1115 28.0193 18.15 28.1175 18.15H28.125C28.1742 18.149 28.2228 18.1383 28.2679 18.1185C28.313 18.0987 28.3538 18.0702 28.3879 18.0346C28.422 17.9991 28.4487 17.9571 28.4666 17.9112C28.4845 17.8653 28.4932 17.8164 28.4921 17.7671C28.3725 12.1058 23.6655 7.5 18 7.5C12.3345 7.5 7.6275 12.1058 7.5075 17.7671C7.50549 17.8665 7.54303 17.9627 7.61188 18.0344C7.68072 18.1061 7.77523 18.1476 7.87463 18.1496V18.15ZM11.4971 23.0677C11.4359 22.9893 11.346 22.9385 11.2472 22.9263C11.1484 22.9142 11.0489 22.9418 10.9704 23.0031C10.892 23.0643 10.8411 23.1542 10.829 23.253C10.8169 23.3518 10.8445 23.4513 10.9058 23.5297C12.6285 25.7351 15.2141 27 18 27C20.7859 27 23.3715 25.7351 25.0943 23.5297C25.1555 23.4514 25.1831 23.3519 25.171 23.2531C25.1589 23.1544 25.1081 23.0645 25.0298 23.0033C24.9514 22.942 24.8519 22.9144 24.7531 22.9265C24.6544 22.9386 24.5645 22.9894 24.5033 23.0677C22.9238 25.0901 20.5534 26.25 18 26.25C15.4466 26.25 13.0763 25.0901 11.4968 23.0677H11.4971ZM24.5321 12.9683C24.5615 13.0091 24.5989 13.0436 24.6419 13.0697C24.6849 13.0958 24.7328 13.113 24.7826 13.1202C24.8324 13.1275 24.8831 13.1246 24.9318 13.1118C24.9805 13.099 25.0261 13.0765 25.0659 13.0457C25.1057 13.0149 25.1389 12.9764 25.1635 12.9325C25.1881 12.8886 25.2037 12.8402 25.2092 12.7902C25.2147 12.7402 25.2101 12.6896 25.1956 12.6414C25.1812 12.5932 25.1571 12.5484 25.125 12.5096C23.4026 10.2787 20.8054 9 18 9C15.1946 9 12.5974 10.2791 10.8746 12.5096C10.8138 12.5883 10.7868 12.688 10.7994 12.7867C10.8121 12.8853 10.8634 12.9749 10.9421 13.0357C11.0208 13.0966 11.1205 13.1236 11.2192 13.111C11.3178 13.0983 11.4074 13.047 11.4683 12.9683C13.0478 10.923 15.4286 9.75 18 9.75C20.5714 9.75 22.9526 10.923 24.5321 12.9683Z" fill="#0167FF"/>
</svg>
