<svg width="147" height="36" viewBox="0 0 147 36" fill="none" xmlns="http://www.w3.org/2000/svg">
<path fill-rule="evenodd" clip-rule="evenodd" d="M80.0078 0H0.0078125V36H80.0078V0ZM22.2188 22.9062C22.0833 22.8281 21.7943 22.6354 21.3516 22.3281C22.1849 21.3125 22.6016 19.9583 22.6016 18.2656C22.6016 16.3646 22.0833 14.9036 21.0469 13.8828C20.0156 12.862 18.5495 12.3516 16.6484 12.3516C14.7839 12.3516 13.3307 12.875 12.2891 13.9219C11.2526 14.9635 10.7344 16.4271 10.7344 18.3125C10.7344 20.2552 11.3281 21.763 12.5156 22.8359C13.5208 23.7422 14.8932 24.1953 16.6328 24.1953C17.8099 24.1953 18.7891 24.026 19.5703 23.6875C19.763 23.8542 20.1016 24.1016 20.5859 24.4297C21.0703 24.763 21.5599 25.0495 22.0547 25.2891L23.0391 23.3047C22.6953 23.1536 22.4219 23.0208 22.2188 22.9062ZM19.0625 18.25C19.0625 19.2552 18.9219 20.0104 18.6406 20.5156C18.5 20.4271 18.3698 20.3411 18.25 20.2578C17.7448 19.9036 17.4036 19.6849 17.2266 19.6016C17.0547 19.5182 16.8125 19.4479 16.5 19.3906L15.9453 20.6641C16.5859 20.9193 17.0547 21.1901 17.3516 21.4766C17.138 21.5234 16.9115 21.5469 16.6719 21.5469C15.9271 21.5469 15.3411 21.2943 14.9141 20.7891C14.487 20.2839 14.2734 19.4062 14.2734 18.1562C14.2734 17.0833 14.4922 16.2943 14.9297 15.7891C15.3672 15.2839 15.9375 15.0312 16.6406 15.0312C17.3958 15.0312 17.987 15.2786 18.4141 15.7734C18.8464 16.2682 19.0625 17.0938 19.0625 18.25ZM35.4922 12.5469H31.9609V19.5391C31.9609 20.1745 31.7865 20.6667 31.4375 21.0156C31.0938 21.3594 30.6172 21.5312 30.0078 21.5312C29.3932 21.5312 28.9115 21.3568 28.5625 21.0078C28.2188 20.6536 28.0469 20.1641 28.0469 19.5391V12.5469H24.5156V19.375C24.5156 19.9375 24.625 20.5833 24.8438 21.3125C24.9792 21.7656 25.2292 22.2057 25.5938 22.6328C25.9635 23.0599 26.3698 23.3906 26.8125 23.625C27.2552 23.8542 27.8047 24.0078 28.4609 24.0859C29.1224 24.1641 29.7318 24.2031 30.2891 24.2031C31.2526 24.2031 32.0781 24.0755 32.7656 23.8203C33.2604 23.638 33.7318 23.3229 34.1797 22.875C34.6328 22.4219 34.9635 21.8958 35.1719 21.2969C35.3854 20.6927 35.4922 20.0521 35.4922 19.375V12.5469ZM41.5234 12.5469H37.9766V24H41.5234V12.5469ZM54.7969 20.2578L51.6953 19.3203C51.5391 20.0443 51.2865 20.5964 50.9375 20.9766C50.5938 21.3568 50.0833 21.5469 49.4062 21.5469C48.7083 21.5469 48.1667 21.3125 47.7812 20.8438C47.3958 20.3698 47.2031 19.4974 47.2031 18.2266C47.2031 17.2005 47.3646 16.4479 47.6875 15.9688C48.1146 15.3229 48.7292 15 49.5312 15C49.8854 15 50.2057 15.0729 50.4922 15.2188C50.7786 15.3646 51.0208 15.5729 51.2188 15.8438C51.3385 16.0052 51.4531 16.2604 51.5625 16.6094L54.6875 15.9141C54.2865 14.7057 53.6719 13.8099 52.8438 13.2266C52.0208 12.6432 50.888 12.3516 49.4453 12.3516C47.6016 12.3516 46.1745 12.862 45.1641 13.8828C44.1589 14.8984 43.6562 16.3542 43.6562 18.25C43.6562 19.6719 43.9427 20.8385 44.5156 21.75C45.0885 22.6615 45.7682 23.2995 46.5547 23.6641C47.3464 24.0234 48.3646 24.2031 49.6094 24.2031C50.6354 24.2031 51.4792 24.0547 52.1406 23.7578C52.8073 23.4609 53.3646 23.0208 53.8125 22.4375C54.2604 21.8542 54.5885 21.1276 54.7969 20.2578ZM60.0781 12.5469H56.5391V24H60.0781V21.2031L61.9062 19.2891L64.3203 24H68.6797L64.3203 16.8672L68.4922 12.5469H63.7891L60.0781 16.875V12.5469Z" fill="white"/>
<mask id="path-2-inside-1_3833_16369" fill="white">
<path d="M80.0078 0H147.008V36H80.0078V0Z"/>
</mask>
<path d="M147.008 0H149.008V-2H147.008V0ZM147.008 36V38H149.008V36H147.008ZM80.0078 2H147.008V-2H80.0078V2ZM145.008 0V36H149.008V0H145.008ZM147.008 34H80.0078V38H147.008V34Z" fill="white" mask="url(#path-2-inside-1_3833_16369)"/>
<path d="M90.0469 12.5469H93.75L96.3281 20.7891L98.8672 12.5469H102.461L98.2109 24H94.375L90.0469 12.5469ZM103.773 12.5469H107.32V24H103.773V12.5469ZM109.859 12.5469H119.344V14.9922H113.406V16.8125H118.914V19.1484H113.406V21.4062H119.516V24H109.859V12.5469ZM120.25 12.5469H123.609L124.82 18.9453L126.586 12.5469H129.938L131.711 18.9453L132.922 12.5469H136.266L133.742 24H130.273L128.266 16.7891L126.266 24H122.797L120.25 12.5469Z" fill="white"/>
</svg>
