<svg width="60" height="60" viewBox="0 0 60 60" fill="none" xmlns="http://www.w3.org/2000/svg">
<circle cx="30" cy="30" r="30" fill="#0167FF" fill-opacity="0.2"/>
<path fill-rule="evenodd" clip-rule="evenodd" d="M44.5921 30.7141C44.5918 31.0318 44.4974 31.3422 44.3208 31.6062C44.1442 31.8703 43.8933 32.0761 43.5998 32.1976C43.3063 32.3191 42.9834 32.3509 42.6718 32.289C42.3602 32.2271 42.074 32.0743 41.8492 31.8498L39.2821 29.2827L33.4878 35.4112C33.2015 35.7068 32.8596 35.9428 32.4818 36.1057C32.104 36.2686 31.6977 36.3553 31.2863 36.3606C30.8748 36.366 30.4664 36.29 30.0845 36.137C29.7025 35.984 29.3546 35.757 29.0607 35.4691V35.4712L29.0457 35.4562L25.3749 31.7877L19.0664 38.0984C18.6643 38.5005 18.1189 38.7264 17.5503 38.7264C16.9817 38.7264 16.4363 38.5005 16.0342 38.0984C15.6321 37.6963 15.4062 37.151 15.4062 36.5823C15.4062 36.0137 15.6321 35.4683 16.0342 35.0662L23.1764 27.9262L23.1914 27.9113C23.7749 27.3397 24.5592 27.0196 25.376 27.0196C26.1928 27.0196 26.9771 27.3397 27.5607 27.9113L27.5757 27.9262L31.2207 31.5712L36.2499 26.2527L34.0214 24.0241C33.7969 23.7993 33.6441 23.5131 33.5822 23.2015C33.5203 22.89 33.5521 22.567 33.6736 22.2736C33.7951 21.9801 34.0009 21.7292 34.2649 21.5526C34.529 21.3759 34.8394 21.2815 35.1571 21.2812H42.9828C43.409 21.2812 43.8178 21.4506 44.1192 21.752C44.4206 22.0534 44.5899 22.4622 44.5899 22.8884V30.7141H44.5921Z" fill="#0167FF"/>
</svg>
